<?xml version="1.0" encoding="iso-8859-1"?>
<!-- Generator: Adobe Illustrator 19.0.0, SVG Export Plug-In . SVG Version: 6.00 Build 0)  -->
<svg version="1.1" id="Layer_1" xmlns="http://www.w3.org/2000/svg" xmlns:xlink="http://www.w3.org/1999/xlink" x="0px" y="0px"
	 viewBox="0 0 508 508" style="enable-background:new 0 0 508 508;" xml:space="preserve">
<path style="fill:#33A5D2;" d="M208,248v234.8c0,10,12.8,19.2,22.8,19.2h40c10,0,13.2-9.2,13.2-19.2V248c0-8,12.8-14,18.4-18h-52
	h-52C204.8,234,208,240,208,248z"/>
<path style="fill:#CCCCCC;" d="M484.4,88v-1.2c0,0,0,0,0,0.4C484,87.2,484,87.6,484.4,88z"/>
<path style="fill:#E07D46;" d="M438.4,40.8c-23.6,0-44.4,19.2-44.8,42.8c0,0.4-1.2,0.8-1.2,1.2l0,0c0,24.4-19.6,44-44,44
	s-44-19.6-44-44v-2.4v-1.6c0-20-16-36-36-36s-36,16-36,36v0.8v3.2c0,13.2-10.8,24-24,24s-24-10.8-24-24v-3.6v-2.4c0-12-10-22-22-22
	s-22,10-22,22v2v2.4c0,23.2-18.8,42-42,42C74.8,124.8,56,106,56,82.8v-3.2v-0.4c0-12-10-22-22-22s-22,9.6-22,21.6l0,0v60
	c0,10,12.4,19.2,22.4,19.2H466c10,0,13.6-9.2,13.6-18.8V88.4V88c0-0.4,0-0.8,0-1.2c0,0,0,0,0-0.4v-2l0,0
	C480,60.8,462.4,40.8,438.4,40.8z"/>
<path style="fill:#FFC52F;" d="M466.4,6h-432C24.4,6,12,12.8,12,22.8v42.4c4-7.2,12.8-12.4,22-12.4c14.4,0,26,11.6,26,26v0.8v3.2
	c0,20.8,17.2,38,38,38s38-17.2,38-38v-2.4v-2c0-14.4,11.6-26,26-26s26,11.6,26,26v2.4v3.6c0,11.2,8.8,20,20,20s20-8.8,20-20v-3.2
	v-0.8c0-22,18-40,40-40s40,18,40,40V82v2c0,22,20,40.8,42.4,40.8s42-18.8,42-38.8l0,0c0,0,0-1.2,0-1.6c0.8-26,19.6-46.8,45.6-46.8
	c19.6,0,33.6,11.6,41.6,28.4V22.8C480,12.8,476,6,466.4,6z"/>
<path style="fill:#CCCCCC;" d="M16.4,78.8L16.4,78.8L16.4,78.8z"/>
<path d="M270.8,508h-40c-12.8,0-28.8-11.6-28.8-25.2V248c0-7.2-8.8-14.4-12-16.8c-1.6-0.8-2-2.8-1.6-4.4s2-2.8,4-2.8H310
	c2,0,3.6,1.2,4,3.2s-0.8,3.6-2.4,4.4c-8.8,3.2-21.2,10.4-21.2,16.4v234.8C290,498.4,282.8,508,270.8,508z M202.8,232
	c3.6,4,7.2,9.6,7.2,16v234.8c0,8,11.2,17.2,20.8,17.2h40c10,0,11.2-12,11.2-17.2V248c0-6.4,5.2-12,11.2-16H202.8z"/>
<path d="M482,195.6H268c-2.4,0-4-1.6-4-4s1.6-4,4-4h214c10.8,0,12-11.6,12-16.8v-64c0-7.6-4.8-13.6-12-15.2c-2-0.4-3.6-2.4-3.2-4.8
	c0.4-2,2.4-3.6,4.8-3.2C494.4,86,502,95.2,502,106.8v64C502,186,494,195.6,482,195.6z"/>
<path d="M246,230c-2.4,0-4-1.6-4-4v-14.8c0-12.8,11.6-23.2,26-23.2c2.4,0,4,1.6,4,4s-1.6,4-4,4c-8.8,0-18,6-18,15.2V226
	C250,228.4,248.4,230,246,230z"/>
<path d="M462,164H30c-13.6,0-24-10.4-24-24V24C6,10.4,16.4,0,30,0h432c13.6,0,24,10.4,24,24v116C486,153.6,475.6,164,462,164z M30,8
	c-8.8,0-16,7.2-16,16v116c0,8.8,7.2,16,16,16h432c8.8,0,16-7.2,16-16V24c0-8.8-7.2-16-16-16H30z"/>
<path d="M348,131.2c-25.2,0-46-20.8-46-46v-4c0-18.8-15.2-34-34-34s-34,15.2-34,34v4c0,14-12,26-26,26s-26-12-26-26v-6.4
	c0-11.2-8.8-20-20-20s-20,8.8-20,20v4.4c0,24.4-19.6,44-44,44s-44-19.6-44-44v-4c0-11.6-7.2-20-17.6-20c-11.2,0-20.8,8.8-20.8,19.6
	c0,2.4-1.6,4-4,4s-4-1.6-4-4c0-15.2,12.8-27.6,28.8-27.6c14.8,0,25.6,11.6,25.6,28v4c0,20,16,36,36,36s36-16,36-36v-4.4
	c0-15.6,12.4-28,28-28s28,12.4,28,28v6.4c0,9.6,8.4,18,18,18s18-8.4,18-18v-4c0-23.2,18.8-42,42-42s42,18.8,42,42v4
	c0,20.8,17.2,38,38,38s38-17.2,38-38c0-27.2,24-50,52-50c27.6,0,50,22.4,50,50c0,2.4-1.6,4-4,4c-2.4,0-4-1.6-4-4
	c0-23.2-18.8-42-42-42c-24,0-44,19.2-44,42C394,110.4,373.2,131.2,348,131.2z"/>
<path d="M262,482c-2.4,0-4-1.6-4-4V302c0-2.4,1.6-4,4-4s4,1.6,4,4v176C266,480.4,264.4,482,262,482z"/>
<path d="M262,286c-2.4,0-4-1.6-4-4v-20c0-2.4,1.6-4,4-4s4,1.6,4,4v20C266,284.4,264.4,286,262,286z"/>
<g>
</g>
<g>
</g>
<g>
</g>
<g>
</g>
<g>
</g>
<g>
</g>
<g>
</g>
<g>
</g>
<g>
</g>
<g>
</g>
<g>
</g>
<g>
</g>
<g>
</g>
<g>
</g>
<g>
</g>
</svg>
